TITLE ""
FILE "1Q_t_0278-0287.mp3" MP3
  TRACK 01 AUDIO
    TITLE "1Q_t_0278-0287_01"
    INDEX 01 00:00:00
  TRACK 02 AUDIO
    TITLE "1Q_t_0278-0287_02"
    INDEX 01 00:01:23
  TRACK 03 AUDIO
    TITLE "1Q_t_0278-0287_03"
    INDEX 01 00:01:41
  TRACK 04 AUDIO
    TITLE "1Q_t_0278-0287_04"
    INDEX 01 00:02:62
  TRACK 05 AUDIO
    TITLE "1Q_t_0278-0287_05"
    INDEX 01 00:03:01
  TRACK 06 AUDIO
    TITLE "1Q_t_0278-0287_06"
    INDEX 01 00:07:67
  TRACK 07 AUDIO
    TITLE "1Q_t_0278-0287_07"
    INDEX 01 00:08:53
  TRACK 08 AUDIO
    TITLE "1Q_t_0278-0287_08"
    INDEX 01 00:09:70
  TRACK 09 AUDIO
    TITLE "1Q_t_0278-0287_09"
    INDEX 01 00:10:11
  TRACK 10 AUDIO
    TITLE "1Q_t_0278-0287_10"
    INDEX 01 00:12:25
  TRACK 11 AUDIO
    TITLE "1Q_t_0278-0287_11"
    INDEX 01 00:12:41
  TRACK 12 AUDIO
    TITLE "1Q_t_0278-0287_12"
    INDEX 01 00:19:15
  TRACK 13 AUDIO
    TITLE "1Q_t_0278-0287_13"
    INDEX 01 00:19:66
  TRACK 14 AUDIO
    TITLE "1Q_t_0278-0287_14"
    INDEX 01 00:20:74
  TRACK 15 AUDIO
    TITLE "1Q_t_0278-0287_15"
    INDEX 01 00:21:14
  TRACK 16 AUDIO
    TITLE "1Q_t_0278-0287_16"
    INDEX 01 00:23:17
  TRACK 17 AUDIO
    TITLE "1Q_t_0278-0287_17"
    INDEX 01 00:23:33
  TRACK 18 AUDIO
    TITLE "1Q_t_0278-0287_18"
    INDEX 01 00:29:37
  TRACK 19 AUDIO
    TITLE "1Q_t_0278-0287_19"
    INDEX 01 00:30:17
  TRACK 20 AUDIO
    TITLE "1Q_t_0278-0287_20"
    INDEX 01 00:31:46
  TRACK 21 AUDIO
    TITLE "1Q_t_0278-0287_21"
    INDEX 01 00:31:62
  TRACK 22 AUDIO
    TITLE "1Q_t_0278-0287_22"
    INDEX 01 00:34:19
  TRACK 23 AUDIO
    TITLE "1Q_t_0278-0287_23"
    INDEX 01 00:34:35
  TRACK 24 AUDIO
    TITLE "1Q_t_0278-0287_24"
    INDEX 01 00:41:21
  TRACK 25 AUDIO
    TITLE "1Q_t_0278-0287_25"
    INDEX 01 00:42:01
  TRACK 26 AUDIO
    TITLE "1Q_t_0278-0287_26"
    INDEX 01 00:43:08
  TRACK 27 AUDIO
    TITLE "1Q_t_0278-0287_27"
    INDEX 01 00:43:28
  TRACK 28 AUDIO
    TITLE "1Q_t_0278-0287_28"
    INDEX 01 00:46:52
  TRACK 29 AUDIO
    TITLE "1Q_t_0278-0287_29"
    INDEX 01 00:46:67
  TRACK 30 AUDIO
    TITLE "1Q_t_0278-0287_30"
    INDEX 01 00:52:09
  TRACK 31 AUDIO
    TITLE "1Q_t_0278-0287_31"
    INDEX 01 00:52:62
  TRACK 32 AUDIO
    TITLE "1Q_t_0278-0287_32"
    INDEX 01 00:53:75
  TRACK 33 AUDIO
    TITLE "1Q_t_0278-0287_33"
    INDEX 01 00:54:16
  TRACK 34 AUDIO
    TITLE "1Q_t_0278-0287_34"
    INDEX 01 00:57:36
  TRACK 35 AUDIO
    TITLE "1Q_t_0278-0287_35"
    INDEX 01 00:57:49
  TRACK 36 AUDIO
    TITLE "1Q_t_0278-0287_36"
    INDEX 01 01:03:72
  TRACK 37 AUDIO
    TITLE "1Q_t_0278-0287_37"
    INDEX 01 01:04:51
  TRACK 38 AUDIO
    TITLE "1Q_t_0278-0287_38"
    INDEX 01 01:05:65
  TRACK 39 AUDIO
    TITLE "1Q_t_0278-0287_39"
    INDEX 01 01:06:05
  TRACK 40 AUDIO
    TITLE "1Q_t_0278-0287_40"
    INDEX 01 01:07:32
  TRACK 41 AUDIO
    TITLE "1Q_t_0278-0287_41"
    INDEX 01 01:07:48
  TRACK 42 AUDIO
    TITLE "1Q_t_0278-0287_42"
    INDEX 01 01:11:53
  TRACK 43 AUDIO
    TITLE "1Q_t_0278-0287_43"
    INDEX 01 01:12:33
  TRACK 44 AUDIO
    TITLE "1Q_t_0278-0287_44"
    INDEX 01 01:13:52
  TRACK 45 AUDIO
    TITLE "1Q_t_0278-0287_45"
    INDEX 01 01:13:58
  TRACK 46 AUDIO
    TITLE "1Q_t_0278-0287_46"
    INDEX 01 01:17:54
  TRACK 47 AUDIO
    TITLE "1Q_t_0278-0287_47"
    INDEX 01 01:17:68
  TRACK 48 AUDIO
    TITLE "1Q_t_0278-0287_48"
    INDEX 01 01:24:25
  TRACK 49 AUDIO
    TITLE "1Q_t_0278-0287_49"
    INDEX 01 01:25:03
  TRACK 50 AUDIO
    TITLE "1Q_t_0278-0287_50"
    INDEX 01 01:26:16
  TRACK 51 AUDIO
    TITLE "1Q_t_0278-0287_51"
    INDEX 01 01:26:31
  TRACK 52 AUDIO
    TITLE "1Q_t_0278-0287_52"
    INDEX 01 01:28:56
  TRACK 53 AUDIO
    TITLE "1Q_t_0278-0287_53"
    INDEX 01 01:28:72
  TRACK 54 AUDIO
    TITLE "1Q_t_0278-0287_54"
    INDEX 01 01:33:08
  TRACK 55 AUDIO
    TITLE "1Q_t_0278-0287_55"
    INDEX 01 01:33:61
  TRACK 56 AUDIO
    TITLE "1Q_t_0278-0287_56"
    INDEX 01 01:34:64
  TRACK 57 AUDIO
    TITLE "1Q_t_0278-0287_57"
    INDEX 01 01:35:07
  TRACK 58 AUDIO
    TITLE "1Q_t_0278-0287_58"
    INDEX 01 01:36:63
  TRACK 59 AUDIO
    TITLE "1Q_t_0278-0287_59"
    INDEX 01 01:37:04
  TRACK 60 AUDIO
    TITLE "1Q_t_0278-0287_60"
    INDEX 01 01:42:01
